<?xml version="1.0" encoding="UTF-8"?>
<svg width="367px" height="73px" viewBox="0 0 367 73" version="1.1" xmlns="http://www.w3.org/2000/svg" xmlns:xlink="http://www.w3.org/1999/xlink">
    <!-- Generator: Sketch 47.1 (45422) - http://www.bohemiancoding.com/sketch -->
    <title>logo_clr</title>
    <desc>Created with Sketch.</desc>
    <defs>
        <linearGradient x1="60.6953973%" y1="16.9025171%" x2="64.10225%" y2="62.618736%" id="linearGradient-1">
            <stop stop-color="#00CBE9" offset="0%"></stop>
            <stop stop-color="#4666F2" offset="100%"></stop>
        </linearGradient>
    </defs>
    <g id="Page-1" stroke="none" stroke-width="1" fill="none" fill-rule="evenodd">
        <g id="Myworkbook_logo_concept" transform="translate(-326.000000, -1250.000000)" fill-rule="nonzero">
            <g id="Logo" transform="translate(97.000000, 1076.000000)">
                <g id="logo_clr" transform="translate(229.000000, 174.000000)">
                    <path d="M105.293771,47.1966537 C105.293771,47.5487996 105.002739,47.8342702 104.643733,47.8342702 L99.557839,47.8342702 C99.1988332,47.8342702 98.9078014,47.5487996 98.9078014,47.1966537 L98.9078014,25.7421351 C98.9078014,25.3899892 99.1988332,25.1045186 99.557839,25.1045186 L105.766998,25.1045186 C106.01413,25.1045186 106.239886,25.2419764 106.349542,25.4592164 L112.099525,36.8505738 L117.820621,25.4603373 C117.930045,25.2424826 118.156137,25.1045186 118.403729,25.1045186 L124.612888,25.1045186 C124.971894,25.1045186 125.262925,25.3899892 125.262925,25.7421351 L125.262925,47.1966537 C125.262925,47.5487996 124.971894,47.8342702 124.612888,47.8342702 L119.558195,47.8342702 C119.199761,47.8342702 118.908967,47.5496741 118.90816,47.1980898 L118.883374,36.4037945 L114.528212,45.3295288 C114.420171,45.5509549 114.192133,45.6918789 113.941871,45.6918789 L110.260058,45.6918789 C110.010306,45.6918789 109.782638,45.5515224 109.674328,45.330778 L105.293771,36.4028749 L105.293771,47.1966537 Z M143.900436,25.4399525 C144.013791,25.2333603 144.233652,25.1045186 144.472836,25.1045186 L150.182766,25.1045186 C150.672839,25.1045186 150.98666,25.6162316 150.757027,26.040902 L142.938747,40.4996309 L142.938747,47.1966537 C142.938747,47.5487996 142.647716,47.8342702 142.28871,47.8342702 L136.57878,47.8342702 C136.219774,47.8342702 135.928742,47.5487996 135.928742,47.1966537 L135.928742,40.653944 L127.955613,26.043037 C127.723827,25.6182855 128.037556,25.1045186 128.528714,25.1045186 L134.238644,25.1045186 C134.47544,25.1045186 134.693504,25.230824 134.807858,25.4342151 L139.411183,33.6217105 L143.900436,25.4399525 Z M180.272996,25.5773211 C180.349067,25.2984605 180.606648,25.1045186 180.900942,25.1045186 L186.766882,25.1045186 C187.211739,25.1045186 187.525156,25.5329792 187.382677,25.9463503 L179.98785,47.4008689 C179.898564,47.6599115 179.650828,47.8342702 179.372054,47.8342702 L173.506115,47.8342702 C173.214348,47.8342702 172.958325,47.643582 172.879962,47.3679055 L169.351605,34.9553759 L165.769501,47.370291 C165.690302,47.6447822 165.434861,47.8342702 165.144031,47.8342702 L159.278092,47.8342702 C158.999012,47.8342702 158.751075,47.6595344 158.66203,47.4000951 L151.298405,25.9455765 C151.156578,25.5323526 151.46996,25.1045186 151.914466,25.1045186 L158.061222,25.1045186 C158.355076,25.1045186 158.612387,25.297892 158.688861,25.5761992 L162.367071,38.9621253 L166.045281,25.5761992 C166.121754,25.297892 166.379066,25.1045186 166.67292,25.1045186 L172.258043,25.1045186 C172.551018,25.1045186 172.807789,25.2967594 172.885062,25.5739606 L176.619499,38.9703612 L180.272996,25.5773211 Z M207.202392,26.2836814 C209.102476,27.2963695 210.602197,28.6917163 211.691993,30.4625392 C212.783899,32.2367889 213.330018,34.228017 213.330018,36.423486 C213.330018,38.638198 212.784533,40.6487314 211.693782,42.4427202 C210.604985,44.2334938 209.106475,45.6493307 207.207453,46.6829871 C205.309579,47.7160183 203.18842,48.2321429 200.854496,48.2321429 C198.521591,48.2321429 196.401367,47.7216198 194.504061,46.6996551 C192.603257,45.6758058 191.10356,44.258848 190.014334,42.456577 C188.92423,40.6528511 188.378975,38.6377625 188.378975,36.423486 C188.378975,34.228017 188.925094,32.2367889 190.016999,30.4625392 C191.106796,28.6917163 192.606516,27.2963695 194.506601,26.2836814 C196.403329,25.2727821 198.522612,24.7678571 200.854496,24.7678571 C203.186381,24.7678571 205.305663,25.2727821 207.202392,26.2836814 Z M196.276404,33.5619561 C195.78867,34.4359828 195.544989,35.3966768 195.544989,36.4540916 C195.544989,37.5305404 195.793187,38.4997666 196.28947,39.3723326 C196.787934,40.2487324 197.444936,40.9343154 198.266046,41.4377029 C199.077932,41.9354358 199.956992,42.1824379 200.9169,42.1824379 C201.875937,42.1824379 202.748689,41.9359239 203.549319,41.4394502 C204.35683,40.9387093 204.991196,40.2574198 205.458766,39.3860138 C205.928635,38.5103217 206.164003,37.5360455 206.164003,36.4540916 C206.164003,35.3929772 205.928872,34.4289099 205.458766,33.552775 C204.991964,32.6827994 204.359168,32.0077265 203.553866,31.5174355 C202.752365,31.0294581 201.877919,30.7869565 200.9169,30.7869565 C199.954169,30.7869565 199.067145,31.030397 198.243118,31.5208146 C197.416242,32.0129281 196.762904,32.6901427 196.276404,33.5619561 Z M237.612306,46.8538775 C237.88819,47.2783308 237.577376,47.8342702 237.06419,47.8342702 L230.605417,47.8342702 C230.363972,47.8342702 230.142419,47.7030045 230.030058,47.4933815 L227.030195,41.8967857 L223.829425,41.8967857 L223.829425,47.1966537 C223.829425,47.5487996 223.538393,47.8342702 223.179387,47.8342702 L217.469457,47.8342702 C217.110451,47.8342702 216.819419,47.5487996 216.819419,47.1966537 L216.819419,25.7421351 C216.819419,25.3899892 217.110451,25.1045186 217.469457,25.1045186 L227.298025,25.1045186 C230.331732,25.1045186 232.72054,25.8058363 234.441027,27.2287236 C236.185894,28.6717747 237.05899,30.7036555 237.05899,33.2711102 C237.05899,34.9868621 236.700726,36.4858808 235.978496,37.7588385 C235.361952,38.8455221 234.507003,39.7298019 233.421553,40.4063132 L237.612306,46.8538775 Z M227.329227,36.1531366 C228.342443,36.1531366 229.085344,35.917255 229.588581,35.4640947 C230.078511,35.0229179 230.329801,34.3683101 230.329801,33.4547438 C230.329801,32.5849369 230.081381,31.9577781 229.592894,31.5257553 C229.089398,31.080458 228.344505,30.8481677 227.329227,30.8481677 L223.829425,30.8481677 L223.829425,36.1531366 L227.329227,36.1531366 Z M263.579748,46.8417818 C263.869071,47.2654167 263.559533,47.8342702 263.039692,47.8342702 L256.206497,47.8342702 C255.99071,47.8342702 255.788989,47.7292335 255.668081,47.5539162 L250.393135,39.9051708 L248.369644,42.1155447 L248.369644,47.1966537 C248.369644,47.5487996 248.078612,47.8342702 247.719606,47.8342702 L242.009676,47.8342702 C241.65067,47.8342702 241.359638,47.5487996 241.359638,47.1966537 L241.359638,25.7421351 C241.359638,25.3899892 241.65067,25.1045186 242.009676,25.1045186 L247.719606,25.1045186 C248.078612,25.1045186 248.369644,25.3899892 248.369644,25.7421351 L248.369644,33.3346674 L255.434081,25.3249635 C255.557555,25.184968 255.73696,25.1045186 255.925681,25.1045186 L262.540463,25.1045186 C263.103188,25.1045186 263.400078,25.7582392 263.023715,26.1685874 L255.249664,34.6446264 L263.579748,46.8417818 Z M285.85606,37.2793678 C286.75208,38.375137 287.200289,39.6997804 287.200289,41.2285637 C287.200289,42.5669223 286.813685,43.7562838 286.042726,44.7760443 C285.27941,45.7856962 284.200601,46.5511985 282.821305,47.0724131 C281.473111,47.5818747 279.907339,47.8342702 278.125764,47.8342702 L267.32994,47.8342702 C266.970934,47.8342702 266.679902,47.5487996 266.679902,47.1966537 L266.679902,25.7421351 C266.679902,25.3899892 266.970934,25.1045186 267.32994,25.1045186 L277.720141,25.1045186 C279.435954,25.1045186 280.941141,25.3353779 282.234627,25.8016778 C283.557671,26.2786335 284.597863,26.9719967 285.341746,27.8840832 C286.100955,28.8149603 286.482647,29.9147569 286.482647,31.1593245 C286.482647,32.4234357 286.09634,33.5427227 285.327958,34.4935437 C284.925173,34.9919638 284.445983,35.4070575 283.893408,35.7381216 C284.662735,36.1082974 285.318915,36.6224774 285.85606,37.2793678 Z M277.408123,33.6434783 C278.055269,33.6434783 278.531381,33.4994823 278.861867,33.2268838 C279.166394,32.9756972 279.316633,32.6307221 279.316633,32.1387034 C279.316633,31.6732865 279.171957,31.3539855 278.875567,31.122726 C278.548666,30.8676595 278.073197,30.7394041 277.408123,30.7563509 L273.689908,30.7563509 L273.689908,33.6434783 L277.408123,33.6434783 Z M277.408123,42.2130435 C278.28074,42.2130435 278.940602,42.0427135 279.401633,41.7196983 C279.810901,41.4329504 280.003073,41.0559503 280.003073,40.5246351 C280.003073,40.0620243 279.817595,39.7208991 279.407967,39.4410738 C278.950096,39.128292 278.292664,38.9713172 277.408123,38.9892547 L273.689908,38.9892547 L273.689908,42.2130435 L277.408123,42.2130435 Z M308.389842,26.2836814 C310.289927,27.2963695 311.789647,28.6917163 312.879444,30.4625392 C313.971349,32.2367889 314.517469,34.228017 314.517469,36.423486 C314.517469,38.638198 313.971984,40.6487314 312.881233,42.4427202 C311.792436,44.2334938 310.293925,45.6493307 308.394903,46.6829871 C306.49703,47.7160183 304.375871,48.2321429 302.041947,48.2321429 C299.709042,48.2321429 297.588818,47.7216198 295.691512,46.6996551 C293.790707,45.6758058 292.291011,44.258848 291.201785,42.456577 C290.111681,40.6528511 289.566426,38.6377625 289.566426,36.423486 C289.566426,34.228017 290.112545,32.2367889 291.20445,30.4625392 C292.294247,28.6917163 293.793967,27.2963695 295.694052,26.2836814 C297.59078,25.2727821 299.710063,24.7678571 302.041947,24.7678571 C304.373832,24.7678571 306.493114,25.2727821 308.389842,26.2836814 Z M297.463855,33.5619561 C296.976121,34.4359828 296.73244,35.3966768 296.73244,36.4540916 C296.73244,37.5305404 296.980638,38.4997666 297.476921,39.3723326 C297.975384,40.2487324 298.632387,40.9343154 299.453497,41.4377029 C300.265383,41.9354358 301.144442,42.1824379 302.104351,42.1824379 C303.063388,42.1824379 303.93614,41.9359239 304.73677,41.4394502 C305.544281,40.9387093 306.178647,40.2574198 306.646217,39.3860138 C307.116086,38.5103217 307.351454,37.5360455 307.351454,36.4540916 C307.351454,35.3929772 307.116323,34.4289099 306.646217,33.552775 C306.179415,32.6827994 305.546619,32.0077265 304.741317,31.5174355 C303.939816,31.0294581 303.06537,30.7869565 302.104351,30.7869565 C301.14162,30.7869565 300.254596,31.030397 299.430569,31.5208146 C298.603693,32.0129281 297.950354,32.6901427 297.463855,33.5619561 Z M339.541386,30.4625392 C340.633291,32.2367889 341.17941,34.228017 341.17941,36.423486 C341.17941,38.638198 340.633926,40.6487314 339.543174,42.4427202 C338.454378,44.2334938 336.955867,45.6493307 335.056845,46.6829871 C333.158972,47.7160183 331.037813,48.2321429 328.703889,48.2321429 C326.370983,48.2321429 324.25076,47.7216198 322.353454,46.6996551 C320.452649,45.6758058 318.952952,44.258848 317.863727,42.456577 C316.773622,40.6528511 316.228367,38.6377625 316.228367,36.423486 C316.228367,34.228017 316.774487,32.2367889 317.866392,30.4625392 C318.956189,28.6917163 320.455909,27.2963695 322.355994,26.2836814 C324.252722,25.2727821 326.372004,24.7678571 328.703889,24.7678571 C331.035773,24.7678571 333.155056,25.2727821 335.051784,26.2836814 C336.951869,27.2963695 338.451589,28.6917163 339.541386,30.4625392 Z M324.125797,33.5619561 C323.638063,34.4359828 323.394382,35.3966768 323.394382,36.4540916 C323.394382,37.5305404 323.642579,38.4997666 324.138862,39.3723326 C324.637326,40.2487324 325.294328,40.9343154 326.115438,41.4377029 C326.927325,41.9354358 327.806384,42.1824379 328.766292,42.1824379 C329.725329,42.1824379 330.598082,41.9359239 331.398712,41.4394502 C332.206223,40.9387093 332.840589,40.2574198 333.308158,39.3860138 C333.778027,38.5103217 334.013396,37.5360455 334.013396,36.4540916 C334.013396,35.3929772 333.778265,34.4289099 333.308158,33.552775 C332.841356,32.6827994 332.20856,32.0077265 331.403259,31.5174355 C330.601758,31.0294581 329.727312,30.7869565 328.766292,30.7869565 C327.803561,30.7869565 326.916537,31.030397 326.092511,31.5208146 C325.265634,32.0129281 324.612296,32.6901427 324.125797,33.5619561 Z M366.888922,46.8417818 C367.178244,47.2654167 366.868706,47.8342702 366.348866,47.8342702 L359.51567,47.8342702 C359.299884,47.8342702 359.098162,47.7292335 358.977255,47.5539162 L353.702308,39.9051708 L351.678817,42.1155447 L351.678817,47.1966537 C351.678817,47.5487996 351.387786,47.8342702 351.02878,47.8342702 L345.31885,47.8342702 C344.959844,47.8342702 344.668812,47.5487996 344.668812,47.1966537 L344.668812,25.7421351 C344.668812,25.3899892 344.959844,25.1045186 345.31885,25.1045186 L351.02878,25.1045186 C351.387786,25.1045186 351.678817,25.3899892 351.678817,25.7421351 L351.678817,33.3346674 L358.743255,25.3249635 C358.866728,25.184968 359.046133,25.1045186 359.234854,25.1045186 L365.849637,25.1045186 C366.412361,25.1045186 366.709252,25.7582392 366.332889,26.1685874 L358.558838,34.6446264 L366.888922,46.8417818 Z" id="Myworkbook-Copy-15" fill="#364962"></path>
                    <g id="Logo-line-Copy-2">
                        <path d="M10.5608942,35.1159076 L36.488057,60.7183998 L46.5848703,50.748023 L28.8519911,11.7856438 C28.3842807,10.7579986 27.5241077,9.93210704 26.4380237,9.48583934 C24.0428832,8.50168543 21.3061458,9.61597435 20.3445667,11.8979312 L10.5608942,35.1159076 Z M37.1411891,8.00050288 L57.148046,51.9592271 C57.3695116,52.4458276 57.2633643,53.0169514 56.8813496,53.3941823 L37.4079304,72.6237473 C36.8998984,73.1254176 36.0762157,73.1254176 35.5681836,72.6237473 L0.381062067,37.8772534 C0.00846721537,37.5093244 -0.102564315,36.9557856 0.0998684568,36.4753853 L11.9516228,8.34957165 C14.8635969,1.43906384 22.8973329,-1.83194887 29.8954743,1.04356029 C33.1189,2.36805339 35.7099745,4.85586272 37.1411891,8.00050288 Z" id="Rectangle-7-Copy-5" fill="url(#linearGradient-1)"></path>
                        <path d="M26.2945623,50.748023 L36.3913756,60.7183998 L62.3185385,35.1159076 L52.5348659,11.8979312 C51.5732869,9.61597435 48.8365494,8.50168543 46.441409,9.48583934 C45.355325,9.93210704 44.4951519,10.7579986 44.0274415,11.7856438 L26.2945623,50.748023 Z M35.7382436,8.00050288 C37.1694581,4.85586272 39.7605326,2.36805339 42.9839583,1.04356029 C49.9820998,-1.83194887 58.0158357,1.43906384 60.9278098,8.34957165 L72.7795642,36.4753853 C72.9819969,36.9557856 72.8709654,37.5093244 72.4983706,37.8772534 L37.311249,72.6237473 C36.8032169,73.1254176 35.9795342,73.1254176 35.4715022,72.6237473 L15.998083,53.3941823 C15.6160684,53.0169514 15.509921,52.4458276 15.7313866,51.9592271 L35.7382436,8.00050288 Z" id="Rectangle-7-Copy-7" fill="#4666F2"></path>
                    </g>
                </g>
            </g>
        </g>
    </g>
</svg>